Coordinates
version=1
nRows=41
nColumns=38
inDegrees=no

Units are S.I. units (second, meters, Newtons, ...)
If the header above contains a line with 'inDegrees', this indicates whether rotational values are in degrees (yes) or radians (no).

endheader
time	pelvis_tilt	pelvis_list	pelvis_rotation	pelvis_tx	pelvis_ty	pelvis_tz	hip_flexion_r	hip_adduction_r	hip_rotation_r	knee_angle_r	ankle_angle_r	subtalar_angle_r	mtp_angle_r	hip_flexion_l	hip_adduction_l	hip_rotation_l	knee_angle_l	ankle_angle_l	subtalar_angle_l	mtp_angle_l	lumbar_extension	lumbar_bending	lumbar_rotation	arm_flex_r	arm_add_r	arm_rot_r	elbow_flex_r	pro_sup_r	wrist_flex_r	wrist_dev_r	arm_flex_l	arm_add_l	arm_rot_l	elbow_flex_l	pro_sup_l	wrist_flex_l	wrist_dev_l
1.12	2.08121	1.36193	-0.466317	0.77149	0.609634	1.00415	0.139549	0.168972	-0.424854	0.387191	0.0495558	0	0	0.202621	-0.259534	0.0571469	1.29529	-0.127635	0	0	-0.289942	0.186332	0.00988312	-0.0724165	-0.197644	0.0447371	0.34382	1.40492	0	0	0.0036436	-0.232336	0.305558	0.323702	1.30842	0	0
1.13	2.09468	1.36223	-0.482646	0.772581	0.617935	1.00544	0.121526	0.171726	-0.421554	0.376119	0.0538276	0	0	0.223115	-0.252088	0.0671329	1.30935	-0.123267	0	0	-0.293918	0.183467	0.0132953	-0.0686447	-0.198469	0.0471613	0.342248	1.40198	0	0	0.00589081	-0.23249	0.308898	0.324556	1.30504	0	0
1.14	2.10709	1.36409	-0.49809	0.773704	0.626069	1.00655	0.106628	0.171761	-0.419321	0.369505	0.058972	0	0	0.243721	-0.244113	0.0748127	1.31877	-0.121811	0	0	-0.296991	0.179081	0.0171784	-0.0663962	-0.199371	0.0490595	0.342594	1.39846	0	0	0.00807187	-0.233281	0.31179	0.32676	1.30246	0	0
1.15	2.11521	1.36675	-0.510403	0.774703	0.634293	1.00745	0.0937659	0.17117	-0.415827	0.36393	0.0643348	0	0	0.264194	-0.236298	0.0807082	1.32364	-0.1208	0	0	-0.298921	0.174555	0.0212712	-0.0637285	-0.200453	0.0470681	0.343083	1.40175	0	0	0.00926403	-0.233505	0.310668	0.329341	1.30456	0	0
1.16	2.12205	1.36957	-0.520768	0.775789	0.642372	1.00821	0.0824286	0.169832	-0.413191	0.360572	0.0702768	0	0	0.284431	-0.228611	0.0865014	1.3246	-0.120028	0	0	-0.30045	0.170025	0.0252938	-0.0618861	-0.201528	0.0449625	0.344658	1.4047	0	0	0.0110321	-0.23412	0.311218	0.331923	1.30582	0	0
1.17	2.13948	1.37044	-0.541307	0.776853	0.650468	1.00916	0.0650966	0.171281	-0.405076	0.349854	0.0734716	0	0	0.300237	-0.221938	0.091064	1.32098	-0.117651	0	0	-0.304945	0.165987	0.0298731	-0.0626998	-0.204956	0.0580669	0.352708	1.38503	0	0	0.0106756	-0.241185	0.349085	0.345522	1.25812	0	0
1.18	2.14968	1.37317	-0.555204	0.777858	0.658487	1.00991	0.0502847	0.171995	-0.394321	0.339257	0.076398	0	0	0.317246	-0.214638	0.0939635	1.31349	-0.115123	0	0	-0.307244	0.161285	0.0342848	-0.061755	-0.206949	0.0610256	0.356275	1.38095	0	0	0.0132345	-0.241689	0.352238	0.347613	1.2554	0	0
1.19	2.15632	1.384	-0.564662	0.778506	0.666521	1.00988	0.0427264	0.166306	-0.375804	0.332576	0.084159	0	0	0.338681	-0.198837	0.0960668	1.30357	-0.111798	0	0	-0.303172	0.150575	0.0352875	-0.0587652	-0.204787	0.0402841	0.352669	1.41069	0	0	0.0175515	-0.236105	0.319057	0.337964	1.30294	0	0
1.2	2.17527	1.38676	-0.586739	0.779428	0.674493	1.0106	0.0283318	0.164485	-0.369372	0.325985	0.0891252	0	0	0.352288	-0.19166	0.0970039	1.28969	-0.102684	0	0	-0.306745	0.145241	0.0392459	-0.0566376	-0.205849	0.0403746	0.354034	1.41163	0	0	0.0211702	-0.235953	0.322075	0.338162	1.30089	0	0
1.21	2.19479	1.38921	-0.61003	0.780348	0.68232	1.01126	0.0140814	0.162373	-0.364886	0.31947	0.0937243	0	0	0.364226	-0.185476	0.0963753	1.27174	-0.0911678	0	0	-0.311023	0.140049	0.043867	-0.0534638	-0.207195	0.0420059	0.354513	1.41206	0	0	0.025389	-0.235346	0.325085	0.337968	1.29858	0	0
1.22	2.23398	1.38044	-0.651596	0.78147	0.690127	1.01294	-0.0135236	0.167276	-0.370209	0.306229	0.0925837	0	0	0.364026	-0.189221	0.0951596	1.24789	-0.0773294	0	0	-0.326612	0.141644	0.0500399	-0.0514209	-0.213421	0.0764247	0.362879	1.365	0	0	0.0287326	-0.24055	0.362205	0.349008	1.24536	0	0
1.23	2.25771	1.39073	-0.678645	0.782169	0.697923	1.01272	-0.021187	0.159167	-0.353421	0.302823	0.101248	0	0	0.377586	-0.175958	0.091191	1.22318	-0.0648568	0	0	-0.325154	0.129489	0.0512646	-0.0480199	-0.212689	0.0747852	0.361605	1.36844	0	0	0.0315131	-0.240458	0.360742	0.349179	1.24763	0	0
1.24	2.31202	1.38909	-0.73433	0.78302	0.70594	1.01385	-0.046041	0.157366	-0.345762	0.289318	0.103508	0	0	0.375887	-0.171223	0.0860398	1.19136	-0.0542631	0	0	-0.337383	0.123124	0.0529752	-0.0374905	-0.206529	0.0409797	0.348141	1.41389	0	0	0.0402409	-0.232683	0.319655	0.334539	1.30285	0	0
1.25	2.34399	1.37983	-0.766625	0.783965	0.714003	1.01536	-0.0770063	0.164213	-0.34479	0.267664	0.0998389	0	0	0.371606	-0.176621	0.0814752	1.15687	-0.0443629	0	0	-0.352078	0.125136	0.0561936	-0.030301	-0.206222	0.0416	0.34349	1.41204	0	0	0.0461615	-0.230853	0.318233	0.331969	1.30308	0	0
1.26	2.38285	1.38347	-0.80333	0.78525	0.720744	1.01617	-0.0897855	0.158521	-0.341283	0.263256	0.101393	0	0	0.388104	-0.183811	0.0528204	1.13371	-0.0488785	0	0	-0.360376	0.115569	0.0539782	-0.0230564	-0.204629	0.056507	0.343472	1.39309	0	0	0.0519378	-0.237341	0.344536	0.339305	1.26679	0	0
1.27	2.39948	1.39165	-0.825951	0.785363	0.729857	1.01476	-0.0930681	0.14934	-0.332192	0.271013	0.117725	0	0	0.38424	-0.163891	0.0603202	1.08439	-0.0259965	0	0	-0.354538	0.107182	0.0574397	-0.0233335	-0.206319	0.0564692	0.341582	1.3951	0	0	0.050624	-0.234685	0.341799	0.33756	1.2683	0	0
1.28	2.44027	1.39018	-0.868767	0.786233	0.738003	1.01506	-0.112024	0.146309	-0.327251	0.264656	0.124512	0	0	0.380831	-0.164212	0.0438932	1.04277	-0.0183055	0	0	-0.363778	0.101101	0.0589497	-0.0162474	-0.204129	0.0517663	0.334615	1.40215	0	0	0.056795	-0.230029	0.313104	0.327741	1.30173	0	0
1.29	2.46177	1.38764	-0.891921	0.787074	0.746236	1.01504	-0.129423	0.146792	-0.322678	0.257784	0.129525	0	0	0.380191	-0.169241	0.0251238	1.00295	-0.0106466	0	0	-0.37101	0.0984516	0.0613101	-0.0120599	-0.203826	0.0530018	0.332645	1.39979	0	0	0.0600659	-0.229952	0.312267	0.327215	1.30019	0	0
1.3	2.47175	1.37841	-0.901292	0.787907	0.754435	1.01576	-0.156786	0.155035	-0.322573	0.237836	0.125708	0	0	0.372756	-0.178223	0.0108393	0.957294	-0.00390187	0	0	-0.383557	0.102154	0.0639451	-0.00741955	-0.204012	0.0539952	0.332074	1.39755	0	0	0.0645028	-0.229564	0.312442	0.327254	1.29818	0	0
1.31	2.54714	1.39105	-0.982047	0.789053	0.76151	1.01547	-0.153742	0.132345	-0.317136	0.258511	0.141546	0	0	0.379658	-0.182121	-0.0553737	0.91887	-0.00721754	0	0	-0.386764	0.0789809	0.0640236	-0.00163308	-0.200415	0.0600198	0.331028	1.3857	0	0	0.0685841	-0.235196	0.319947	0.332953	1.28676	0	0
1.32	2.52129	1.39487	-0.95799	0.789111	0.770407	1.01389	-0.157487	0.133847	-0.315374	0.258753	0.149757	0	0	0.37668	-0.166514	-0.0316897	0.859881	0.00926417	0	0	-0.380351	0.0814683	0.0659292	-0.00295821	-0.203246	0.0592596	0.333349	1.38917	0	0	0.0670162	-0.232875	0.317703	0.333254	1.28868	0	0
1.33	2.53443	1.39775	-0.971121	0.789474	0.778705	1.01329	-0.165834	0.130298	-0.314912	0.258541	0.156763	0	0	0.374757	-0.164084	-0.0504828	0.808649	0.0146324	0	0	-0.381417	0.0775976	0.0651519	-0.00144073	-0.203325	0.0588541	0.335009	1.39182	0	0	0.0686128	-0.233434	0.316434	0.334469	1.29055	0	0
1.34	2.5814	1.39527	-1.02066	0.789992	0.787253	1.01341	-0.185075	0.12496	-0.310167	0.25339	0.161004	0	0	0.359744	-0.160747	-0.0781211	0.750771	0.0173648	0	0	-0.391181	0.0703536	0.066883	0.00171799	-0.201225	0.0433662	0.334245	1.41413	0	0	0.0705225	-0.236092	0.322328	0.338792	1.28625	0	0
1.35	2.57963	1.38791	-1.01743	0.790236	0.796054	1.01377	-0.21067	0.132218	-0.311482	0.23326	0.155988	0	0	0.346846	-0.166017	-0.10069	0.693922	0.018448	0	0	-0.399959	0.0749596	0.0675087	0.00331894	-0.202371	0.0427708	0.336286	1.41412	0	0	0.0726829	-0.235942	0.323622	0.339414	1.28492	0	0
1.36	2.69397	1.39416	-1.12939	0.79011	0.80277	1.0151	-0.22173	0.109355	-0.314028	0.234881	0.158746	0	0	0.321251	-0.138862	-0.122994	0.606788	0.00564838	0	0	-0.41375	0.0527004	0.0587946	0.0132657	-0.199015	0.0505868	0.335754	1.40155	0	0	0.0828335	-0.238458	0.31641	0.337	1.29536	0	0
1.37	2.639	1.40503	-1.08012	0.790358	0.813316	1.01141	-0.211237	0.108867	-0.311691	0.252428	0.177335	0	0	0.339272	-0.142732	-0.148233	0.577575	0.0223466	0	0	-0.39265	0.0565826	0.0635821	0.00354553	-0.202923	0.0487298	0.340245	1.40352	0	0	0.0741128	-0.236748	0.316975	0.33807	1.2958	0	0
1.38	2.67078	1.41305	-1.11092	0.790041	0.821639	1.01068	-0.213454	0.0983585	-0.315077	0.256686	0.185952	0	0	0.327664	-0.121432	-0.145667	0.502891	0.0202501	0	0	-0.390709	0.0488956	0.0599923	0.00521359	-0.20272	0.0490782	0.341409	1.4042	0	0	0.0767547	-0.237209	0.319412	0.337044	1.29517	0	0
1.39	2.69808	1.41567	-1.14421	0.789075	0.830741	1.01011	-0.226288	0.0798713	-0.336856	0.256376	0.205539	0	0	0.31585	-0.109668	-0.161147	0.445011	0.0210894	0	0	-0.391354	0.0439246	0.0600718	0.00430651	-0.20771	0.0733184	0.348427	1.36999	0	0	0.0727331	-0.241016	0.349865	0.345173	1.25281	0	0
1.4	2.68274	1.41933	-1.12718	0.788588	0.840321	1.00856	-0.233064	0.0796293	-0.340811	0.255978	0.212105	0	0	0.323993	-0.113389	-0.196397	0.419948	0.0375912	0	0	-0.385707	0.0462675	0.0580992	0.00178305	-0.209154	0.0721695	0.349639	1.37358	0	0	0.0706376	-0.239399	0.348341	0.343919	1.25505	0	0
1.41	2.76465	1.42594	-1.20505	0.78813	0.848077	1.00858	-0.238856	0.0642553	-0.345795	0.259761	0.216822	0	0	0.310682	-0.0880547	-0.19585	0.354467	0.0283872	0	0	-0.390367	0.0325653	0.0497581	0.00816413	-0.205597	0.0709189	0.347081	1.37621	0	0	0.0763101	-0.241315	0.346779	0.342451	1.25694	0	0
1.42	2.80428	1.42819	-1.24292	0.787394	0.857475	1.00775	-0.248746	0.0557863	-0.350844	0.262574	0.223312	0	0	0.298853	-0.0728083	-0.1971	0.301844	0.0259353	0	0	-0.390704	0.0275934	0.0456216	0.00833813	-0.20533	0.0686579	0.346114	1.37905	0	0	0.0760201	-0.240525	0.344206	0.341201	1.25951	0	0
1.43	2.83448	1.42853	-1.27143	0.78662	0.867133	1.00695	-0.26004	0.0492084	-0.355861	0.265405	0.229472	0	0	0.28805	-0.0608908	-0.198097	0.258238	0.0242305	0	0	-0.391579	0.0247275	0.0422318	0.00744083	-0.205669	0.0669168	0.346113	1.38163	0	0	0.0755431	-0.23913	0.342326	0.338598	1.26241	0	0
1.44	2.86543	1.42656	-1.30096	0.785861	0.876998	1.00636	-0.273372	0.0429448	-0.360924	0.268969	0.234346	0	0	0.275328	-0.0498147	-0.198486	0.219351	0.0211317	0	0	-0.394354	0.0221703	0.0393791	0.00631491	-0.206152	0.0658824	0.346131	1.38453	0	0	0.0754066	-0.23735	0.340231	0.3349	1.26565	0	0
1.45	2.90063	1.42187	-1.33521	0.785104	0.887105	1.00607	-0.289402	0.0362508	-0.366343	0.273272	0.237522	0	0	0.257465	-0.038343	-0.193462	0.180412	0.0157436	0	0	-0.399915	0.0192832	0.0366407	0.00568267	-0.206316	0.0642884	0.345276	1.39102	0	0	0.0772282	-0.230938	0.309553	0.323278	1.30629	0	0
1.46	2.91046	1.4184	-1.34518	0.784493	0.897321	1.00557	-0.301978	0.0327639	-0.368686	0.279298	0.238059	0	0	0.246075	-0.0325487	-0.193339	0.155348	0.0173004	0	0	-0.402466	0.0189966	0.0368178	0.00372005	-0.206583	0.0629201	0.344126	1.39258	0	0	0.0745377	-0.232362	0.328408	0.326767	1.27861	0	0
1.47	2.91951	1.41466	-1.35544	0.783807	0.907697	1.00512	-0.313448	0.0282663	-0.371022	0.288189	0.238103	0	0	0.234811	-0.0270602	-0.195157	0.13575	0.0199277	0	0	-0.405034	0.0187447	0.0378553	0.00155001	-0.20722	0.0618591	0.342889	1.39379	0	0	0.073514	-0.2295	0.325693	0.322676	1.28058	0	0
1.48	2.93309	1.41031	-1.37405	0.783241	0.91819	1.00478	-0.323296	0.0203329	-0.374119	0.300697	0.238577	0	0	0.222541	-0.0216967	-0.192364	0.123765	0.022662	0	0	-0.40834	0.0168138	0.0404867	-0.0014007	-0.210332	0.0767653	0.345453	1.3737	0	0	0.0722781	-0.224432	0.310404	0.315438	1.29437	0	0
1.49	2.93562	1.40738	-1.37724	0.782564	0.928944	1.00433	-0.331168	0.0164315	-0.371771	0.315165	0.236912	0	0	0.214931	-0.0188024	-0.205944	0.116069	0.0284981	0	0	-0.408803	0.0169587	0.0421759	-0.00491287	-0.210279	0.0742078	0.343534	1.37627	0	0	0.069737	-0.221964	0.306393	0.313466	1.29737	0	0
1.5	2.94447	1.40465	-1.38934	0.782052	0.939864	1.00392	-0.337341	0.0095935	-0.370257	0.331789	0.234681	0	0	0.208522	-0.0156719	-0.216555	0.119008	0.0332104	0	0	-0.408838	0.0149029	0.0448445	-0.00863448	-0.210037	0.071787	0.341879	1.37897	0	0	0.065815	-0.219791	0.301726	0.311939	1.30181	0	0
1.51	2.96043	1.40258	-1.40975	0.781535	0.951005	1.00349	-0.341275	0.000133498	-0.36808	0.351893	0.232087	0	0	0.203254	-0.0118601	-0.228204	0.128753	0.0353006	0	0	-0.407862	0.0108672	0.0477128	-0.0130101	-0.209588	0.0686262	0.340409	1.38192	0	0	0.0601682	-0.218135	0.295621	0.312057	1.30675	0	0
1.52	2.97756	1.40132	-1.43282	0.781083	0.962417	1.00294	-0.342588	-0.0107058	-0.363553	0.375084	0.228409	0	0	0.198681	-0.00837195	-0.238018	0.143562	0.0355282	0	0	-0.405286	0.00575435	0.0511916	-0.0183665	-0.209034	0.0644112	0.339668	1.38549	0	0	0.0525237	-0.217058	0.287808	0.314057	1.3118	0	0
